<?xml version="1.0" encoding="UTF-8" standalone="no"?>
<!-- Created with Inkscape (http://www.inkscape.org/) -->

<svg
   xmlns:dc="http://purl.org/dc/elements/1.1/"
   xmlns:cc="http://creativecommons.org/ns#"
   xmlns:rdf="http://www.w3.org/1999/02/22-rdf-syntax-ns#"
   xmlns:svg="http://www.w3.org/2000/svg"
   xmlns="http://www.w3.org/2000/svg"
   xmlns:sodipodi="http://sodipodi.sourceforge.net/DTD/sodipodi-0.dtd"
   xmlns:inkscape="http://www.inkscape.org/namespaces/inkscape"
   width="210mm"
   height="297mm"
   viewBox="0 0 210 297"
   version="1.1"
   id="svg8"
   sodipodi:docname="logo_makespacelive.svg"
   inkscape:version="0.92.3 (2405546, 2018-03-11)">
  <defs
     id="defs2">
	

		
		
	</defs>
  <sodipodi:namedview
     id="base"
     pagecolor="#ffffff"
     bordercolor="#666666"
     borderopacity="1.0"
     inkscape:pageopacity="0.0"
     inkscape:pageshadow="2"
     inkscape:zoom="3.959798"
     inkscape:cx="266.68214"
     inkscape:cy="695.0595"
     inkscape:document-units="mm"
     inkscape:current-layer="layer1"
     showgrid="false"
     inkscape:window-width="1920"
     inkscape:window-height="1017"
     inkscape:window-x="-8"
     inkscape:window-y="-8"
     inkscape:window-maximized="1" />
  <metadata
     id="metadata5">
    <rdf:RDF>
      <cc:Work
         rdf:about="">
        <dc:format>image/svg+xml</dc:format>
        <dc:type
           rdf:resource="http://purl.org/dc/dcmitype/StillImage" />
      </cc:Work>
    </rdf:RDF>
  </metadata>
  <g
     inkscape:label="Layer 1"
     inkscape:groupmode="layer"
     id="layer1">
    <path
       style="vector-effect:none;fill:#333333;fill-opacity:1;stroke-width:0.99999994;stroke-linecap:butt;stroke-linejoin:miter;stroke-miterlimit:4;stroke-dasharray:none;stroke-dashoffset:0;stroke-opacity:1"
       d="M 281.5332 370.22852 C 278.97619 370.22852 276.46304 370.40712 273.99805 370.74414 L 270.8418 380.1875 C 265.9668 381.34048 261.38621 383.25837 257.24219 385.81836 L 248.33984 381.37695 C 244.31885 384.42499 240.73059 388.0122 237.68359 392.0332 L 242.125 400.9375 C 239.565 405.08153 237.64614 409.6611 236.49414 414.53711 L 227.05078 417.69531 C 226.71376 420.15832 226.53516 422.6725 226.53516 425.22852 C 226.53516 427.7845 226.7128 430.29868 227.05078 432.76172 L 236.49414 435.91992 C 237.64715 440.79593 239.56405 445.37551 242.12305 449.51953 L 237.68359 458.42383 C 240.73059 462.44483 244.31885 466.03208 248.33984 469.08008 L 257.24414 464.63867 C 261.38815 467.19866 265.96875 469.11651 270.84375 470.26953 L 274 479.71094 C 276.46399 480.04883 278.97815 480.22852 281.53516 480.22852 C 284.09214 480.22852 286.60529 480.04879 289.07031 479.71094 L 292.22656 470.26953 C 297.10156 469.11651 301.68121 467.19764 305.82422 464.63867 L 314.73047 469.08008 C 318.75049 466.03208 322.33972 462.44483 325.38672 458.42383 L 320.94531 449.51953 C 323.50433 445.37551 325.4202 440.79593 326.57422 435.91992 L 336.01953 432.76172 C 336.35655 430.29868 336.53516 427.7845 336.53516 425.22852 C 336.53516 422.6725 336.35562 420.15832 336.01758 417.69531 L 326.57422 414.53711 C 325.42023 409.6611 323.5043 405.08153 320.94531 400.9375 L 325.38672 392.0332 C 322.33774 388.0122 318.74851 384.42499 314.72852 381.37695 L 305.82422 385.81836 C 301.68124 383.25837 297.10156 381.34048 292.22656 380.1875 L 289.06836 370.74414 C 286.60434 370.40712 284.09021 370.22852 281.5332 370.22852 z M 281.53516 389.70703 A 35.522032 35.522032 0 0 1 317.05664 425.22852 A 35.522032 35.522032 0 0 1 281.53516 460.75 A 35.522032 35.522032 0 0 1 246.01367 425.22852 A 35.522032 35.522032 0 0 1 281.53516 389.70703 z "
       transform="scale(0.26458333)"
       id="path29" />
    <g
       id="g848"
       transform="matrix(0.26458333,0,0,0.26458333,37.436875,111.13318)">
</g>
    <g
       id="g850"
       transform="matrix(0.26458333,0,0,0.26458333,37.436875,111.13318)">
</g>
    <g
       id="g852"
       transform="matrix(0.26458333,0,0,0.26458333,37.436875,111.13318)">
</g>
    <g
       id="g854"
       transform="matrix(0.26458333,0,0,0.26458333,37.436875,111.13318)">
</g>
    <g
       id="g856"
       transform="matrix(0.26458333,0,0,0.26458333,37.436875,111.13318)">
</g>
    <g
       id="g858"
       transform="matrix(0.26458333,0,0,0.26458333,37.436875,111.13318)">
</g>
    <g
       id="g860"
       transform="matrix(0.26458333,0,0,0.26458333,37.436875,111.13318)">
</g>
    <g
       id="g862"
       transform="matrix(0.26458333,0,0,0.26458333,37.436875,111.13318)">
</g>
    <g
       id="g864"
       transform="matrix(0.26458333,0,0,0.26458333,37.436875,111.13318)">
</g>
    <g
       id="g866"
       transform="matrix(0.26458333,0,0,0.26458333,37.436875,111.13318)">
</g>
    <g
       id="g868"
       transform="matrix(0.26458333,0,0,0.26458333,37.436875,111.13318)">
</g>
    <g
       id="g870"
       transform="matrix(0.26458333,0,0,0.26458333,37.436875,111.13318)">
</g>
    <g
       id="g872"
       transform="matrix(0.26458333,0,0,0.26458333,37.436875,111.13318)">
</g>
    <g
       id="g874"
       transform="matrix(0.26458333,0,0,0.26458333,37.436875,111.13318)">
</g>
    <g
       id="g876"
       transform="matrix(0.26458333,0,0,0.26458333,37.436875,111.13318)">
</g>
    <g
       id="play"
       transform="matrix(0.59240706,0,0,0.59240706,55.406004,93.549154)"
       style="fill:#ff2a2a">
			<g
   id="g841"
   style="fill:#ff2a2a">
				<path
   inkscape:connector-curvature="0"
   d="m 41.109,30.341 -12,-7.989 C 28.496,21.944 27.707,21.905 27.056,22.252 26.406,22.599 26,23.275 26,24.013 v 15.98 c 0,0.737 0.406,1.412 1.057,1.761 0.65,0.348 1.439,0.311 2.053,-0.1 l 12,-7.989 C 41.666,33.294 42,32.67 42,32.003 42,31.335 41.666,30.712 41.109,30.341 Z"
   id="path839"
   sodipodi:nodetypes="cccsscccsc"
   style="fill:#ff2a2a" />

			</g>

		</g>
  </g>
</svg>
